HIERARCHY
ROOT Hips
{
	OFFSET 47.529202 4.595086 84.272697
	CHANNELS 6 Xposition Yposition Zposition Xrotation Yrotation Zrotation
	JOINT spine
	{
		OFFSET 0.000000 -0.359108 6.244797
		CHANNELS 3 Xrotation Yrotation Zrotation
		JOINT spine1
		{
			OFFSET 0.000000 -0.000001 9.069412
			CHANNELS 3 Xrotation Yrotation Zrotation
			JOINT spine2
			{
				OFFSET 0.000000 -0.000001 8.690140
				CHANNELS 3 Xrotation Yrotation Zrotation
				JOINT Neck
				{
					OFFSET 0.000000 -1.063724 22.311195
					CHANNELS 3 Xrotation Yrotation Zrotation
					JOINT Head
					{
						OFFSET 0.000000 -0.000001 6.740814
						CHANNELS 3 Xrotation Yrotation Zrotation
						End Site
						{
							OFFSET 0.000000 5.380967 16.316498
						}
					}
				}
				JOINT RightShoulder
				{
					OFFSET -3.659161 0.509512 9.384682
					CHANNELS 3 Xrotation Yrotation Zrotation
					JOINT RightArm
					{
						OFFSET 0.000000 -0.000002 12.308899
						CHANNELS 3 Xrotation Yrotation Zrotation
						JOINT RightArmRoll
						{
							OFFSET 0.000000 -0.000001 6.213745
							CHANNELS 3 Xrotation Yrotation Zrotation
							JOINT RightForeArm
							{
								OFFSET 0.000000 -0.000003 18.098495
								CHANNELS 3 Xrotation Yrotation Zrotation
								JOINT RightForeArmRoll
								{
									OFFSET 0.000000 -0.000001 6.972794
									CHANNELS 3 Xrotation Yrotation Zrotation
									JOINT RightHand
									{
										OFFSET 0.000000 -0.000002 13.992905
										CHANNELS 3 Xrotation Yrotation Zrotation
										End Site
										{
											OFFSET 0.000000 0.000000 0.100006
										}
									}
								}
							}
						}
					}
				}
				JOINT LeftShoulder
				{
					OFFSET 3.659161 0.509512 9.384682
					CHANNELS 3 Xrotation Yrotation Zrotation
					JOINT LeftArm
					{
						OFFSET 0.000000 -0.000002 12.308899
						CHANNELS 3 Xrotation Yrotation Zrotation
						JOINT LeftArmRoll
						{
							OFFSET 0.000000 -0.000001 6.213745
							CHANNELS 3 Xrotation Yrotation Zrotation
							JOINT LeftForeArm
							{
								OFFSET 0.000000 -0.000003 18.098495
								CHANNELS 3 Xrotation Yrotation Zrotation
								JOINT LeftForeArmRoll
								{
									OFFSET 0.000000 -0.000001 6.972794
									CHANNELS 3 Xrotation Yrotation Zrotation
									JOINT LeftHand
									{
										OFFSET 0.000000 -0.000002 13.992905
										CHANNELS 3 Xrotation Yrotation Zrotation
										End Site
										{
											OFFSET 0.000000 0.000000 0.100006
										}
									}
								}
							}
						}
					}
				}
			}
		}
	}
	JOINT RightUpLeg
	{
		OFFSET -5.535160 0.851455 -1.014999
		CHANNELS 3 Xrotation Yrotation Zrotation
		JOINT RightUpLegRoll
		{
			OFFSET 0.000000 -0.000003 16.407501
			CHANNELS 3 Xrotation Yrotation Zrotation
			JOINT RightLeg
			{
				OFFSET 0.000000 0.000003 -20.318100
				CHANNELS 3 Xrotation Yrotation Zrotation
				JOINT RightLegRoll
				{
					OFFSET 0.000000 -0.000003 20.384598
					CHANNELS 3 Xrotation Yrotation Zrotation
					JOINT RightFoot
					{
						OFFSET 0.000000 -0.000003 16.966805
						CHANNELS 3 Xrotation Yrotation Zrotation
						JOINT RightToeBase
						{
							OFFSET 0.000000 -0.000002 14.183395
							CHANNELS 3 Xrotation Yrotation Zrotation
							End Site
							{
								OFFSET 0.006012 0.791745 6.868896
							}
						}
					}
				}
			}
		}
	}
	JOINT LeftUpLeg
	{
		OFFSET 5.535160 0.851455 -1.014999
		CHANNELS 3 Xrotation Yrotation Zrotation
		JOINT LeftUpLegRoll
		{
			OFFSET 0.000000 -0.000003 16.407600
			CHANNELS 3 Xrotation Yrotation Zrotation
			JOINT LeftLeg
			{
				OFFSET 0.000000 -0.000003 20.318100
				CHANNELS 3 Xrotation Yrotation Zrotation
				JOINT LeftLegRoll
				{
					OFFSET 0.000000 -0.000003 20.573105
					CHANNELS 3 Xrotation Yrotation Zrotation
					JOINT LeftFoot
					{
						OFFSET 0.000000 -0.000003 16.778305
						CHANNELS 3 Xrotation Yrotation Zrotation
						JOINT LeftToeBase
						{
							OFFSET 0.000000 -0.000002 14.183395
							CHANNELS 3 Xrotation Yrotation Zrotation
							End Site
							{
								OFFSET -0.026943 0.791745 6.868896
							}
						}
					}
				}
			}
		}
	}
}
MOTION
Frames: 11
Frame Time: 0.041667
48.953800 13.335084 89.273903 9.169232 -0.573886 -2.653739 -2.685451 0.683293 -0.030752 -1.368079 1.367470 -0.036199 0.277191 1.366954 -0.052580 -11.163774 -5.129038 -3.408471 12.645696 9.807390 -3.808920 -17.582594 -32.487289 -20.579322 -125.092005 -148.357542 -89.877312 -0.000000 0.000003 -0.000006 33.662895 1.317523 -1.376647 0.000008 0.000001 -2.999999 -5.000199 -7.998758 0.000161 -24.925942 10.659472 32.724027 -121.635342 165.502942 88.369349 0.000002 -0.000000 -0.000001 8.328339 -7.510229 0.631147 -0.000003 -0.000001 2.999994 -5.000221 7.999707 -0.000061 -16.918447 -167.699381 -0.946561 -179.999991 0.000004 -1.061987 170.167593 3.267397 -0.470034 -0.000007 -0.000001 -0.599642 63.947243 6.892708 2.441974 25.453631 -7.355623 -0.004247 -15.669116 164.871669 -1.363497 -0.000005 -0.000005 -1.058210 -13.471420 -2.985074 0.590851 0.000001 0.000000 0.229008 66.082353 -6.785827 -2.590385 25.446244 7.355634 0.012373 
48.912106 13.346785 89.482307 9.218160 -0.581028 -2.651277 -2.690050 0.676600 -0.026168 -1.377295 1.353919 -0.027216 0.267972 1.353505 -0.043435 -11.451096 -4.793601 -3.354564 12.915960 9.519286 -3.808368 -17.637674 -32.467103 -20.659116 -124.480744 -147.710586 -89.711222 0.000000 0.000000 -0.000007 33.426171 1.233419 -1.365924 0.000004 -0.000005 -3.000003 -5.000197 -7.998754 0.000164 -25.018016 10.998950 32.849518 -121.252933 165.189669 88.163385 0.000003 0.000000 0.000001 8.268794 -7.537544 0.643243 -0.000003 0.000002 2.999991 -5.000218 7.999711 -0.000056 -16.874209 -167.833990 -0.979700 -179.999991 0.000006 -1.061987 170.406936 3.266781 -0.478182 -0.000008 -0.000002 -0.591309 63.994009 6.880882 2.465271 25.456964 -7.355620 -0.000003 -15.592489 165.044418 -1.349331 -0.000005 -0.000005 -1.059230 -13.188223 -2.919487 0.591211 0.000000 -0.000000 0.229149 66.074376 -6.783638 -2.596712 25.456846 7.355620 0.000012 
48.952000 13.368386 89.677597 9.269219 -0.591679 -2.644227 -2.694002 0.666366 -0.020320 -1.385235 1.333250 -0.015844 0.260017 1.332966 -0.031816 -11.756946 -4.362401 -3.285980 13.194517 9.156564 -3.808178 -17.707233 -32.382647 -20.760059 -123.805266 -147.051254 -89.483019 -0.000001 0.000002 -0.000001 33.197971 1.151121 -1.355222 0.000003 -0.000000 -2.999998 -5.000201 -7.998754 0.000164 -25.116834 11.395184 32.979135 -120.876904 164.906311 87.900805 -0.000002 0.000001 0.000002 8.226715 -7.615231 0.657939 0.000000 0.000000 2.999991 -5.000219 7.999711 -0.000059 -16.834140 -167.955472 -0.999673 -179.999991 0.000005 -1.060989 170.636908 3.243299 -0.485518 -0.000008 -0.000003 -0.585433 64.016986 6.872310 2.483628 25.456969 -7.355621 0.000001 -15.544529 165.220227 -1.323038 -0.000004 -0.000005 -1.058310 -12.960189 -2.857192 0.591776 0.000001 0.000000 0.227341 66.081069 -6.781783 -2.601203 25.456950 7.355611 -0.000003 
48.906395 13.373786 89.868904 9.325559 -0.606665 -2.633649 -2.697876 0.652773 -0.013277 -1.393022 1.305804 -0.002209 0.252224 1.305697 -0.017853 -12.088476 -3.834882 -3.200252 13.488194 8.717072 -3.806850 -17.794210 -32.228224 -20.886758 -123.045120 -146.380571 -89.177019 0.000002 0.000002 -0.000000 32.976208 1.071364 -1.345153 0.000005 0.000001 -2.999999 -5.000202 -7.998751 0.000166 -25.227276 11.848184 33.121134 -120.504659 164.659305 87.582703 0.000001 -0.000001 -0.000000 8.196628 -7.743113 0.675416 0.000001 0.000001 2.999993 -5.000221 7.999711 -0.000058 -16.807357 -168.066271 -1.008852 -179.999991 0.000006 -1.058995 170.844942 3.204741 -0.493802 -0.000008 -0.000003 -0.578281 64.038310 6.864554 2.500385 25.456967 -7.355619 0.000001 -15.526757 165.400080 -1.287832 -0.000005 -0.000004 -1.055630 -12.784474 -2.795952 0.592999 0.000001 0.000003 0.223526 66.101000 -6.779943 -2.604778 25.456950 7.355613 0.000000 
48.932598 13.395390 90.056404 9.386420 -0.625083 -2.619823 -2.701629 0.636224 -0.005188 -1.400586 1.272420 0.013406 0.244653 1.272499 -0.001840 -12.442124 -3.225279 -3.097138 13.793891 8.212005 -3.802703 -17.896113 -32.014073 -21.035227 -122.208203 -145.704382 -88.799931 0.000001 0.000002 -0.000003 32.759954 0.993476 -1.335420 0.000006 0.000001 -2.999998 -5.000203 -7.998754 0.000159 -25.348128 12.349341 33.273372 -120.136006 164.443457 87.216379 0.000000 0.000002 0.000001 8.177621 -7.913980 0.695241 -0.000000 -0.000002 2.999991 -5.000224 7.999712 -0.000059 -16.792753 -168.167235 -1.008825 -179.999991 0.000005 -1.057998 171.031393 3.151072 -0.500941 -0.000008 -0.000001 -0.569955 64.058548 6.857487 2.515478 25.456967 -7.355619 0.000000 -15.536194 165.582732 -1.244755 -0.000005 -0.000003 -1.051400 -12.656860 -2.735877 0.594923 0.000001 0.000000 0.217919 66.132733 -6.778176 -2.607241 25.456953 7.355613 -0.000003 
48.874500 13.411183 90.238503 9.451076 -0.646023 -2.603013 -2.705226 0.617123 0.003799 -1.407847 1.233888 0.030713 0.237377 1.234179 0.015928 -12.814281 -2.547803 -2.976715 14.108718 7.652532 -3.794372 -18.010270 -31.750534 -21.201413 -121.303162 -145.028371 -88.359132 0.000002 0.000002 -0.000008 32.548392 0.916762 -1.325728 0.000006 -0.000002 -3.000003 -5.000198 -7.998754 0.000164 -25.477999 12.890360 33.434039 -119.770932 164.253455 86.808904 0.000002 0.000001 -0.000000 8.168783 -8.120600 0.717025 -0.000002 0.000001 2.999992 -5.000220 7.999709 -0.000058 -16.789331 -168.262175 -1.000388 -179.999991 0.000006 -1.055990 171.196656 3.084301 -0.507579 -0.000008 -0.000003 -0.560559 64.078116 6.851100 2.529165 25.456969 -7.355619 0.000003 -15.569998 165.767926 -1.195060 -0.000005 -0.000004 -1.045810 -12.572944 -2.677094 0.597564 0.000000 -0.000000 0.210739 66.174896 -6.776438 -2.608968 25.456953 7.355612 -0.000003 
48.892200 13.450187 90.420692 9.518774 -0.668584 -2.583475 -2.708659 0.595871 0.013533 -1.414755 1.191027 0.049431 0.230455 1.191540 0.035158 -13.201455 -1.816633 -2.839436 14.429632 7.049889 -3.780745 -18.134115 -31.447765 -21.381410 -120.339450 -144.357783 -87.862563 0.000004 0.000003 -0.000004 32.340608 0.840539 -1.315810 0.000006 0.000003 -2.999998 -5.000198 -7.998753 0.000164 -25.615325 13.462997 33.601017 -119.409602 164.083643 86.367885 0.000004 0.000003 0.000004 8.169184 -8.355753 0.740411 -0.000002 0.000001 2.999993 -5.000216 7.999707 -0.000061 -16.796168 -168.350994 -0.985508 -179.999991 0.000006 -1.053995 171.341074 3.006405 -0.513376 -0.000008 -0.000003 -0.550196 64.097733 6.845304 2.541492 25.456969 -7.355621 0.000002 -15.625412 165.954486 -1.139684 -0.000005 -0.000003 -1.039080 -12.528403 -2.619749 0.600895 0.000001 0.000002 0.202200 66.226040 -6.774745 -2.609847 25.456950 7.355612 -0.000001 
48.876301 13.446487 90.592697 9.588754 -0.691859 -2.561494 -2.711868 0.572873 0.023868 -1.421244 1.144658 0.069274 0.223958 1.145411 0.055556 -13.600308 -1.045884 -2.686226 14.753762 6.415251 -3.761089 -18.265263 -31.116074 -21.571373 -119.327216 -143.697345 -87.319058 -0.000000 0.000001 -0.000006 32.135910 0.764105 -1.305409 0.000006 0.000001 -2.999999 -5.000202 -7.998754 0.000161 -25.758566 14.058773 33.772167 -119.051823 163.928447 85.900694 0.000003 -0.000001 -0.000002 8.177924 -8.612230 0.765079 -0.000000 0.000001 2.999988 -5.000218 7.999707 -0.000058 -16.812137 -168.436481 -0.965220 -179.999991 0.000006 -1.050990 171.465014 2.919368 -0.518068 -0.000008 -0.000002 -0.538969 64.117909 6.840069 2.552514 25.456967 -7.355621 0.000003 -15.699400 166.142166 -1.079876 -0.000004 -0.000004 -1.031400 -12.518734 -2.563973 0.604899 0.000001 0.000000 0.192521 66.284821 -6.773121 -2.610173 25.456948 7.355614 -0.000001 
48.868698 13.469386 90.758705 9.660278 -0.714948 -2.537345 -2.714836 0.548532 0.034653 -1.427241 1.095580 0.089961 0.217948 1.096582 0.076829 -14.007034 -0.249597 -2.518533 15.077916 5.759832 -3.734999 -18.401289 -30.766044 -21.767622 -118.277402 -143.051291 -86.738293 0.000002 0.000005 -0.000001 31.933272 0.686761 -1.294280 0.000007 0.000001 -2.999996 -5.000198 -7.998755 0.000161 -25.905705 14.669472 33.945217 -118.697391 163.782090 85.414951 -0.000001 -0.000000 0.000002 8.194054 -8.882807 0.790682 -0.000003 0.000001 2.999993 -5.000219 7.999708 -0.000060 -16.836357 -168.519591 -0.941239 -179.999991 0.000006 -1.047998 171.568847 2.824199 -0.523560 -0.000008 -0.000003 -0.526981 64.139124 6.835255 2.562473 25.456972 -7.355620 0.000001 -15.789319 166.329764 -1.016478 -0.000005 -0.000003 -1.022960 -12.539623 -2.509917 0.609519 0.000000 0.000000 0.181919 66.349789 -6.771582 -2.609736 25.456953 7.355612 0.000001 
48.816700 13.498288 90.921700 9.732601 -0.736951 -2.511323 -2.717526 0.523251 0.045740 -1.432689 1.044613 0.111208 0.212491 1.045873 0.098686 -14.417899 0.558296 -2.338371 15.399136 5.094827 -3.702517 -18.539753 -30.408026 -21.966588 -117.201989 -142.422859 -86.130687 0.000001 0.000002 -0.000008 31.731911 0.607811 -1.282202 0.000007 0.000001 -2.999999 -5.000205 -7.998751 0.000161 -26.054858 15.286918 34.117492 -118.345759 163.638587 84.917911 -0.000001 -0.000000 0.000001 8.216642 -9.160275 0.816882 -0.000001 0.000002 2.999992 -5.000220 7.999711 -0.000057 -16.867787 -168.602113 -0.914925 -179.999991 0.000005 -1.044993 171.652926 2.722895 -0.527639 -0.000008 -0.000003 -0.514336 64.162012 6.830920 2.571236 25.456969 -7.355620 0.000002 -15.892129 166.516160 -0.950397 -0.000005 -0.000003 -1.013980 -12.586866 -2.457735 0.614677 0.000001 0.000000 0.170609 66.419471 -6.770111 -2.608925 25.456957 7.355612 -0.000001 
48.813999 13.543385 91.069206 9.804962 -0.756969 -2.483705 -2.719902 0.497434 0.056981 -1.437506 0.992560 0.132736 0.207654 0.994081 0.120836 -14.829201 1.363984 -2.148355 15.714283 4.431399 -3.664054 -18.678366 -30.052532 -22.165089 -116.113721 -141.814617 -85.507562 0.000002 0.000001 -0.000003 31.530896 0.526545 -1.268949 0.000008 0.000001 -2.999994 -5.000198 -7.998757 0.000162 -26.203608 15.902941 34.286532 -117.996340 163.491902 84.417177 0.000003 0.000002 0.000001 8.244695 -9.437398 0.843297 -0.000001 0.000001 2.999990 -5.000224 7.999714 -0.000055 -16.905434 -168.686889 -0.887398 -179.999991 0.000006 -1.040990 171.717636 2.618438 -0.530968 -0.000008 -0.000002 -0.501135 64.187044 6.826895 2.579239 25.456967 -7.355620 0.000002 -16.005119 166.701135 -0.882702 -0.000005 -0.000005 -1.004650 -12.655854 -2.407580 0.620272 0.000000 -0.000000 0.158808 66.492554 -6.768742 -2.607631 25.456952 7.355613 -0.000000 
